{
    "asset" : {
        "generator" : "Khronos glTF Blender I/O v1.2.75",
        "version" : "2.0"
    },
    "scene" : 0,
    "scenes" : [
        {
            "name" : "Scene",
            "nodes" : [
                7,
                8,
                9
            ]
        }
    ],
    "nodes" : [
        {
            "mesh" : 0,
            "name" : "Cube_Camera_0"
        },
        {
            "mesh" : 1,
            "name" : "Cube_Metallic phone_0"
        },
        {
            "mesh" : 2,
            "name" : "Cube_Screen_0"
        },
        {
            "children" : [
                0,
                1,
                2
            ],
            "name" : "Cube",
            "rotation" : [
                0,
                0.7071068286895752,
                -0.7071068286895752,
                3.090862676913275e-08
            ],
            "scale" : [
                -1.0484750270843506,
                -2.198699951171875,
                -0.08502499759197235
            ]
        },
        {
            "children" : [
                3
            ],
            "name" : "RootNode"
        },
        {
            "children" : [
                4
            ],
            "name" : "e04df3af46314ce68bc2c37460bdd76f.fbx",
            "rotation" : [
                0.7071068286895752,
                0,
                0,
                0.7071068286895752
            ]
        },
        {
            "children" : [
                5
            ],
            "name" : "RootNode (model correction matrix)"
        },
        {
            "children" : [
                6
            ],
            "name" : "RootNode (gltf orientation matrix)",
            "rotation" : [
                -0.7071067690849304,
                0,
                0,
                0.7071067690849304
            ]
        },
        {
            "name" : "Light",
            "rotation" : [
                0.16907575726509094,
                0.7558803558349609,
                -0.27217137813568115,
                0.570947527885437
            ],
            "translation" : [
                4.076245307922363,
                5.903861999511719,
                -1.0054539442062378
            ]
        },
        {
            "name" : "Camera",
            "rotation" : [
                0.483536034822464,
                0.33687159419059753,
                -0.20870360732078552,
                0.7804827094078064
            ],
            "translation" : [
                7.358891487121582,
                4.958309173583984,
                6.925790786743164
            ]
        }
    ],
    "materials" : [
        {
            "doubleSided" : true,
            "emissiveFactor" : [
                0,
                0,
                0
            ],
            "name" : "Camera",
            "pbrMetallicRoughness" : {
                "baseColorFactor" : [
                    0,
                    0,
                    0,
                    1
                ],
                "metallicFactor" : 0,
                "roughnessFactor" : 1
            }
        },
        {
            "doubleSided" : true,
            "emissiveFactor" : [
                0,
                0,
                0
            ],
            "name" : "Metallic_phone",
            "pbrMetallicRoughness" : {
                "baseColorFactor" : [
                    0.002135650021955371,
                    0.002579459920525551,
                    0.0020854598842561245,
                    1
                ],
                "metallicFactor" : 0,
                "roughnessFactor" : 0.9994522929191589
            }
        },
        {
            "doubleSided" : true,
            "name" : "Screen",
            "pbrMetallicRoughness" : {}
        }
    ],
    "meshes" : [
        {
            "name" : "Cube_Camera_0",
            "primitives" : [
                {
                    "attributes" : {
                        "POSITION" : 0,
                        "NORMAL" : 1,
                        "TEXCOORD_0" : 2
                    },
                    "indices" : 3,
                    "material" : 0
                }
            ]
        },
        {
            "name" : "Cube_Metallic phone_0",
            "primitives" : [
                {
                    "attributes" : {
                        "POSITION" : 4,
                        "NORMAL" : 5,
                        "TEXCOORD_0" : 6
                    },
                    "indices" : 7,
                    "material" : 1
                }
            ]
        },
        {
            "name" : "Cube_Screen_0",
            "primitives" : [
                {
                    "attributes" : {
                        "POSITION" : 8,
                        "NORMAL" : 9,
                        "TEXCOORD_0" : 10
                    },
                    "indices" : 11,
                    "material" : 2
                }
            ]
        }
    ],
    "accessors" : [
        {
            "bufferView" : 0,
            "componentType" : 5126,
            "count" : 115,
            "max" : [
                0.8457202911376953,
                -0.4631413221359253,
                -1.0275557041168213
            ],
            "min" : [
                0.5860282182693481,
                -0.8922843337059021,
                -1.19545316696167
            ],
            "type" : "VEC3"
        },
        {
            "bufferView" : 1,
            "componentType" : 5126,
            "count" : 115,
            "type" : "VEC3"
        },
        {
            "bufferView" : 2,
            "componentType" : 5126,
            "count" : 115,
            "type" : "VEC2"
        },
        {
            "bufferView" : 3,
            "componentType" : 5123,
            "count" : 201,
            "type" : "SCALAR"
        },
        {
            "bufferView" : 4,
            "componentType" : 5126,
            "count" : 1042,
            "max" : [
                1.0186140537261963,
                1,
                1
            ],
            "min" : [
                -1,
                -1,
                -1.19545316696167
            ],
            "type" : "VEC3"
        },
        {
            "bufferView" : 5,
            "componentType" : 5126,
            "count" : 1042,
            "type" : "VEC3"
        },
        {
            "bufferView" : 6,
            "componentType" : 5126,
            "count" : 1042,
            "type" : "VEC2"
        },
        {
            "bufferView" : 7,
            "componentType" : 5123,
            "count" : 1371,
            "type" : "SCALAR"
        },
        {
            "bufferView" : 8,
            "componentType" : 5126,
            "count" : 36,
            "max" : [
                0.9843841791152954,
                0.9843841791152954,
                1
            ],
            "min" : [
                -0.9843841791152954,
                -0.9843841791152954,
                1
            ],
            "type" : "VEC3"
        },
        {
            "bufferView" : 9,
            "componentType" : 5126,
            "count" : 36,
            "type" : "VEC3"
        },
        {
            "bufferView" : 10,
            "componentType" : 5126,
            "count" : 36,
            "type" : "VEC2"
        },
        {
            "bufferView" : 11,
            "componentType" : 5123,
            "count" : 78,
            "type" : "SCALAR"
        }
    ],
    "bufferViews" : [
        {
            "buffer" : 0,
            "byteLength" : 1380,
            "byteOffset" : 0
        },
        {
            "buffer" : 0,
            "byteLength" : 1380,
            "byteOffset" : 1380
        },
        {
            "buffer" : 0,
            "byteLength" : 920,
            "byteOffset" : 2760
        },
        {
            "buffer" : 0,
            "byteLength" : 402,
            "byteOffset" : 3680
        },
        {
            "buffer" : 0,
            "byteLength" : 12504,
            "byteOffset" : 4084
        },
        {
            "buffer" : 0,
            "byteLength" : 12504,
            "byteOffset" : 16588
        },
        {
            "buffer" : 0,
            "byteLength" : 8336,
            "byteOffset" : 29092
        },
        {
            "buffer" : 0,
            "byteLength" : 2742,
            "byteOffset" : 37428
        },
        {
            "buffer" : 0,
            "byteLength" : 432,
            "byteOffset" : 40172
        },
        {
            "buffer" : 0,
            "byteLength" : 432,
            "byteOffset" : 40604
        },
        {
            "buffer" : 0,
            "byteLength" : 288,
            "byteOffset" : 41036
        },
        {
            "buffer" : 0,
            "byteLength" : 156,
            "byteOffset" : 41324
        }
    ],
    "buffers" : [
        {
            "byteLength" : 41480,
            "uri" : "scene.bin"
        }
    ]
}
