{
    "asset" : {
        "generator" : "Khronos glTF Blender I/O v1.8.19",
        "version" : "2.0"
    },
    "scene" : 0,
    "scenes" : [
        {
            "name" : "Scene",
            "nodes" : [
                0
            ]
        }
    ],
    "nodes" : [
        {
            "mesh" : 0,
            "name" : "Apple Watch Series 5.001",
            "rotation" : [
                0.7071068286895752,
                0,
                0,
                0.7071067094802856
            ]
        }
    ],
    "materials" : [
        {
            "doubleSided" : true,
            "name" : "Material #72",
            "pbrMetallicRoughness" : {
                "baseColorFactor" : [
                    0.09659130871295929,
                    0.10247121006250381,
                    0.09624077379703522,
                    1
                ],
                "metallicFactor" : 0.9842519760131836,
                "roughnessFactor" : 0.09055116772651672
            }
        },
        {
            "doubleSided" : true,
            "name" : "Material #71",
            "pbrMetallicRoughness" : {
                "baseColorFactor" : [
                    0.7662912607192993,
                    0.7746391296386719,
                    0.8000000715255737,
                    1
                ],
                "metallicFactor" : 0,
                "roughnessFactor" : 0.8779527544975281
            }
        },
        {
            "doubleSided" : true,
            "name" : "Material #74",
            "pbrMetallicRoughness" : {
                "baseColorTexture" : {
                    "index" : 0
                },
                "metallicFactor" : 0,
                "roughnessFactor" : 0.5
            }
        },
        {
            "doubleSided" : true,
            "name" : "Material #73",
            "pbrMetallicRoughness" : {
                "baseColorFactor" : [
                    0.8000000715255737,
                    0.08476458489894867,
                    0.06195124611258507,
                    1
                ],
                "metallicFactor" : 0,
                "roughnessFactor" : 0.5
            }
        },
        {
            "doubleSided" : true,
            "name" : "Material #75",
            "pbrMetallicRoughness" : {
                "baseColorFactor" : [
                    0,
                    0,
                    0,
                    1
                ],
                "metallicFactor" : 0.834645688533783,
                "roughnessFactor" : 0.8149605989456177
            }
        },
        {
            "doubleSided" : true,
            "name" : "Material #76",
            "pbrMetallicRoughness" : {
                "baseColorTexture" : {
                    "index" : 1
                },
                "metallicFactor" : 0,
                "roughnessFactor" : 0.9803149700164795
            }
        },
        {
            "doubleSided" : true,
            "name" : "Material #77",
            "pbrMetallicRoughness" : {
                "baseColorFactor" : [
                    0.7525760531425476,
                    0.8000000715255737,
                    0.7068337798118591,
                    1
                ],
                "metallicFactor" : 0,
                "roughnessFactor" : 0.5
            }
        }
    ],
    "meshes" : [
        {
            "name" : "Apple Watch Series 5.001",
            "primitives" : [
                {
                    "attributes" : {
                        "POSITION" : 0,
                        "NORMAL" : 1,
                        "TEXCOORD_0" : 2
                    },
                    "indices" : 3,
                    "material" : 0
                },
                {
                    "attributes" : {
                        "POSITION" : 4,
                        "NORMAL" : 5,
                        "TEXCOORD_0" : 6
                    },
                    "indices" : 7,
                    "material" : 1
                },
                {
                    "attributes" : {
                        "POSITION" : 8,
                        "NORMAL" : 9,
                        "TEXCOORD_0" : 10
                    },
                    "indices" : 11,
                    "material" : 2
                },
                {
                    "attributes" : {
                        "POSITION" : 12,
                        "NORMAL" : 13,
                        "TEXCOORD_0" : 14
                    },
                    "indices" : 15,
                    "material" : 3
                },
                {
                    "attributes" : {
                        "POSITION" : 16,
                        "NORMAL" : 17,
                        "TEXCOORD_0" : 18
                    },
                    "indices" : 19,
                    "material" : 4
                },
                {
                    "attributes" : {
                        "POSITION" : 20,
                        "NORMAL" : 21,
                        "TEXCOORD_0" : 22
                    },
                    "indices" : 23,
                    "material" : 5
                },
                {
                    "attributes" : {
                        "POSITION" : 24,
                        "NORMAL" : 25,
                        "TEXCOORD_0" : 26
                    },
                    "indices" : 27,
                    "material" : 6
                }
            ]
        }
    ],
    "textures" : [
        {
            "sampler" : 0,
            "source" : 0
        },
        {
            "sampler" : 1,
            "source" : 1
        }
    ],
    "images" : [
        {
            "bufferView" : 12,
            "mimeType" : "image/jpeg",
            "name" : "back_steel_bump"
        },
        {
            "bufferView" : 25,
            "mimeType" : "image/jpeg",
            "name" : "home_screen"
        }
    ],
    "accessors" : [
        {
            "bufferView" : 0,
            "componentType" : 5126,
            "count" : 19577,
            "max" : [
                0.7759581208229065,
                0.8654491305351257,
                1.2881591320037842
            ],
            "min" : [
                -0.7759579420089722,
                -0.860521137714386,
                -1.3370177745819092
            ],
            "type" : "VEC3"
        },
        {
            "bufferView" : 1,
            "componentType" : 5126,
            "count" : 19577,
            "type" : "VEC3"
        },
        {
            "bufferView" : 2,
            "componentType" : 5126,
            "count" : 19577,
            "type" : "VEC2"
        },
        {
            "bufferView" : 3,
            "componentType" : 5123,
            "count" : 44106,
            "type" : "SCALAR"
        },
        {
            "bufferView" : 4,
            "componentType" : 5126,
            "count" : 7015,
            "max" : [
                0.6965574622154236,
                1.4320387840270996,
                1.1859259605407715
            ],
            "min" : [
                -0.743188738822937,
                -1.4320387840270996,
                -1.2867426872253418
            ],
            "type" : "VEC3"
        },
        {
            "bufferView" : 5,
            "componentType" : 5126,
            "count" : 7015,
            "type" : "VEC3"
        },
        {
            "bufferView" : 6,
            "componentType" : 5126,
            "count" : 7015,
            "type" : "VEC2"
        },
        {
            "bufferView" : 7,
            "componentType" : 5123,
            "count" : 12954,
            "type" : "SCALAR"
        },
        {
            "bufferView" : 8,
            "componentType" : 5126,
            "count" : 385,
            "max" : [
                0.5513584613800049,
                0.5784940123558044,
                0.9048218131065369
            ],
            "min" : [
                -0.6006635427474976,
                -0.573527991771698,
                0.8213580846786499
            ],
            "type" : "VEC3"
        },
        {
            "bufferView" : 9,
            "componentType" : 5126,
            "count" : 385,
            "type" : "VEC3"
        },
        {
            "bufferView" : 10,
            "componentType" : 5126,
            "count" : 385,
            "type" : "VEC2"
        },
        {
            "bufferView" : 11,
            "componentType" : 5123,
            "count" : 1632,
            "type" : "SCALAR"
        },
        {
            "bufferView" : 13,
            "componentType" : 5126,
            "count" : 392,
            "max" : [
                0.7759581208229065,
                0.4302299916744232,
                1.2234716415405273
            ],
            "min" : [
                0.7740069031715393,
                0.2110256850719452,
                1.0042543411254883
            ],
            "type" : "VEC3"
        },
        {
            "bufferView" : 14,
            "componentType" : 5126,
            "count" : 392,
            "type" : "VEC3"
        },
        {
            "bufferView" : 15,
            "componentType" : 5126,
            "count" : 392,
            "type" : "VEC2"
        },
        {
            "bufferView" : 16,
            "componentType" : 5123,
            "count" : 1728,
            "type" : "SCALAR"
        },
        {
            "bufferView" : 17,
            "componentType" : 5126,
            "count" : 584,
            "max" : [
                0.6446790099143982,
                0.7715387344360352,
                1.3370157480239868
            ],
            "min" : [
                -0.6943541169166565,
                -0.766647219657898,
                1.2763174772262573
            ],
            "type" : "VEC3"
        },
        {
            "bufferView" : 18,
            "componentType" : 5126,
            "count" : 584,
            "type" : "VEC3"
        },
        {
            "bufferView" : 19,
            "componentType" : 5126,
            "count" : 584,
            "type" : "VEC2"
        },
        {
            "bufferView" : 20,
            "componentType" : 5123,
            "count" : 1152,
            "type" : "SCALAR"
        },
        {
            "bufferView" : 21,
            "componentType" : 5126,
            "count" : 169,
            "max" : [
                0.5480996966362,
                0.6749593019485474,
                1.3370157480239868
            ],
            "min" : [
                -0.5977748036384583,
                -0.6700678467750549,
                1.3370155096054077
            ],
            "type" : "VEC3"
        },
        {
            "bufferView" : 22,
            "componentType" : 5126,
            "count" : 169,
            "type" : "VEC3"
        },
        {
            "bufferView" : 23,
            "componentType" : 5126,
            "count" : 169,
            "type" : "VEC2"
        },
        {
            "bufferView" : 24,
            "componentType" : 5123,
            "count" : 864,
            "type" : "SCALAR"
        },
        {
            "bufferView" : 26,
            "componentType" : 5126,
            "count" : 48,
            "max" : [
                0.21495938301086426,
                0.04020269215106964,
                -1.0074183940887451
            ],
            "min" : [
                -0.2665567398071289,
                -0.4337092638015747,
                -1.0239681005477905
            ],
            "type" : "VEC3"
        },
        {
            "bufferView" : 27,
            "componentType" : 5126,
            "count" : 48,
            "type" : "VEC3"
        },
        {
            "bufferView" : 28,
            "componentType" : 5126,
            "count" : 48,
            "type" : "VEC2"
        },
        {
            "bufferView" : 29,
            "componentType" : 5123,
            "count" : 228,
            "type" : "SCALAR"
        }
    ],
    "bufferViews" : [
        {
            "buffer" : 0,
            "byteLength" : 234924,
            "byteOffset" : 0
        },
        {
            "buffer" : 0,
            "byteLength" : 234924,
            "byteOffset" : 234924
        },
        {
            "buffer" : 0,
            "byteLength" : 156616,
            "byteOffset" : 469848
        },
        {
            "buffer" : 0,
            "byteLength" : 88212,
            "byteOffset" : 626464
        },
        {
            "buffer" : 0,
            "byteLength" : 84180,
            "byteOffset" : 714676
        },
        {
            "buffer" : 0,
            "byteLength" : 84180,
            "byteOffset" : 798856
        },
        {
            "buffer" : 0,
            "byteLength" : 56120,
            "byteOffset" : 883036
        },
        {
            "buffer" : 0,
            "byteLength" : 25908,
            "byteOffset" : 939156
        },
        {
            "buffer" : 0,
            "byteLength" : 4620,
            "byteOffset" : 965064
        },
        {
            "buffer" : 0,
            "byteLength" : 4620,
            "byteOffset" : 969684
        },
        {
            "buffer" : 0,
            "byteLength" : 3080,
            "byteOffset" : 974304
        },
        {
            "buffer" : 0,
            "byteLength" : 3264,
            "byteOffset" : 977384
        },
        {
            "buffer" : 0,
            "byteLength" : 224499,
            "byteOffset" : 980648
        },
        {
            "buffer" : 0,
            "byteLength" : 4704,
            "byteOffset" : 1205148
        },
        {
            "buffer" : 0,
            "byteLength" : 4704,
            "byteOffset" : 1209852
        },
        {
            "buffer" : 0,
            "byteLength" : 3136,
            "byteOffset" : 1214556
        },
        {
            "buffer" : 0,
            "byteLength" : 3456,
            "byteOffset" : 1217692
        },
        {
            "buffer" : 0,
            "byteLength" : 7008,
            "byteOffset" : 1221148
        },
        {
            "buffer" : 0,
            "byteLength" : 7008,
            "byteOffset" : 1228156
        },
        {
            "buffer" : 0,
            "byteLength" : 4672,
            "byteOffset" : 1235164
        },
        {
            "buffer" : 0,
            "byteLength" : 2304,
            "byteOffset" : 1239836
        },
        {
            "buffer" : 0,
            "byteLength" : 2028,
            "byteOffset" : 1242140
        },
        {
            "buffer" : 0,
            "byteLength" : 2028,
            "byteOffset" : 1244168
        },
        {
            "buffer" : 0,
            "byteLength" : 1352,
            "byteOffset" : 1246196
        },
        {
            "buffer" : 0,
            "byteLength" : 1728,
            "byteOffset" : 1247548
        },
        {
            "buffer" : 0,
            "byteLength" : 690614,
            "byteOffset" : 1249276
        },
        {
            "buffer" : 0,
            "byteLength" : 576,
            "byteOffset" : 1939892
        },
        {
            "buffer" : 0,
            "byteLength" : 576,
            "byteOffset" : 1940468
        },
        {
            "buffer" : 0,
            "byteLength" : 384,
            "byteOffset" : 1941044
        },
        {
            "buffer" : 0,
            "byteLength" : 456,
            "byteOffset" : 1941428
        }
    ],
    "samplers" : [
        {
            "magFilter" : 9729,
            "minFilter" : 9987
        },
        {
            "magFilter" : 9729,
            "minFilter" : 9987,
            "wrapS" : 33071,
            "wrapT" : 33071
        }
    ],
    "buffers" : [
        {
            "byteLength" : 1941884,
            "uri" : "data:application/octet-stream;base64,"
        }
    ]
}
