{
  "asset": {
    "generator": "Khronos glTF Blender I/O v1.2.75",
    "version": "2.0"
  },
  "scene": 0,
  "scenes": [
    {
      "name": "Scene",
      "nodes": [7]
    }
  ],
  "nodes": [
    {
      "mesh": 0,
      "name": "Cube_Camera_0"
    },
    {
      "mesh": 1,
      "name": "Cube_Metallic phone_0"
    },
    {
      "mesh": 2,
      "name": "Cube_Screen_0"
    },
    {
      "children": [0, 1, 2],
      "name": "Cube",
      "rotation": [
        0, 0.7071068286895752, -0.7071068286895752, 3.090862676913275e-8
      ]
    },
    {
      "children": [3],
      "name": "RootNode"
    },
    {
      "children": [4],
      "name": "e04df3af46314ce68bc2c37460bdd76f.fbx",
      "rotation": [0.7071068286895752, 0, 0, 0.7071067094802856]
    },
    {
      "children": [5],
      "name": "RootNode (model correction matrix)"
    },
    {
      "children": [6],
      "name": "RootNode (gltf orientation matrix)",
      "rotation": [-0.7071067690849304, 0, 0, 0.7071067690849304]
    }
  ],
  "materials": [
    {
      "doubleSided": true,
      "emissiveFactor": [0, 0, 0],
      "name": "Camera",
      "pbrMetallicRoughness": {
        "baseColorFactor": [0, 0, 0, 1],
        "metallicFactor": 0,
        "roughnessFactor": 1
      }
    },
    {
      "doubleSided": true,
      "emissiveFactor": [0, 0, 0],
      "name": "Metallic_phone",
      "pbrMetallicRoughness": {
        "baseColorFactor": [
          0.002135650021955371, 0.002579459920525551, 0.0020854598842561245, 1
        ],
        "metallicFactor": 0,
        "roughnessFactor": 0.9994522929191589
      }
    },
    {
      "doubleSided": true,
      "name": "Material.001",
      "pbrMetallicRoughness": {}
    }
  ],
  "meshes": [
    {
      "name": "Cube_Camera_0",
      "primitives": [
        {
          "attributes": {
            "POSITION": 0,
            "NORMAL": 1,
            "TEXCOORD_0": 2
          },
          "indices": 3,
          "material": 0
        }
      ]
    },
    {
      "name": "Cube_Metallic phone_0",
      "primitives": [
        {
          "attributes": {
            "POSITION": 4,
            "NORMAL": 5,
            "TEXCOORD_0": 6
          },
          "indices": 7,
          "material": 1
        }
      ]
    },
    {
      "name": "Cube_Screen_0",
      "primitives": [
        {
          "attributes": {
            "POSITION": 8,
            "NORMAL": 9,
            "TEXCOORD_0": 10
          },
          "indices": 11,
          "material": 2
        }
      ]
    }
  ],
  "accessors": [
    {
      "bufferView": 0,
      "componentType": 5126,
      "count": 125,
      "max": [-6.144331455230713, 19.618703842163086, 1.0163862705230713],
      "min": [-8.867125511169434, 10.183114051818848, 0.8736381530761719],
      "type": "VEC3"
    },
    {
      "bufferView": 1,
      "componentType": 5126,
      "count": 125,
      "type": "VEC3"
    },
    {
      "bufferView": 2,
      "componentType": 5126,
      "count": 125,
      "type": "VEC2"
    },
    {
      "bufferView": 3,
      "componentType": 5123,
      "count": 201,
      "type": "SCALAR"
    },
    {
      "bufferView": 4,
      "componentType": 5126,
      "count": 1150,
      "max": [10.484703063964844, 21.9870548248291, 1.0163862705230713],
      "min": [-10.679865837097168, -21.9870548248291, -0.8502100110054016],
      "type": "VEC3"
    },
    {
      "bufferView": 5,
      "componentType": 5126,
      "count": 1150,
      "type": "VEC3"
    },
    {
      "bufferView": 6,
      "componentType": 5126,
      "count": 1150,
      "type": "VEC2"
    },
    {
      "bufferView": 7,
      "componentType": 5123,
      "count": 1371,
      "type": "SCALAR"
    },
    {
      "bufferView": 8,
      "componentType": 5126,
      "count": 48,
      "max": [10.320976257324219, 21.643709182739258, -0.8502100110054016],
      "min": [-10.320976257324219, -21.643709182739258, -0.8502100110054016],
      "type": "VEC3"
    },
    {
      "bufferView": 9,
      "componentType": 5126,
      "count": 48,
      "type": "VEC3"
    },
    {
      "bufferView": 10,
      "componentType": 5126,
      "count": 48,
      "type": "VEC2"
    },
    {
      "bufferView": 11,
      "componentType": 5123,
      "count": 78,
      "type": "SCALAR"
    }
  ],
  "bufferViews": [
    {
      "buffer": 0,
      "byteLength": 1500,
      "byteOffset": 0
    },
    {
      "buffer": 0,
      "byteLength": 1500,
      "byteOffset": 1500
    },
    {
      "buffer": 0,
      "byteLength": 1000,
      "byteOffset": 3000
    },
    {
      "buffer": 0,
      "byteLength": 402,
      "byteOffset": 4000
    },
    {
      "buffer": 0,
      "byteLength": 13800,
      "byteOffset": 4404
    },
    {
      "buffer": 0,
      "byteLength": 13800,
      "byteOffset": 18204
    },
    {
      "buffer": 0,
      "byteLength": 9200,
      "byteOffset": 32004
    },
    {
      "buffer": 0,
      "byteLength": 2742,
      "byteOffset": 41204
    },
    {
      "buffer": 0,
      "byteLength": 576,
      "byteOffset": 43948
    },
    {
      "buffer": 0,
      "byteLength": 576,
      "byteOffset": 44524
    },
    {
      "buffer": 0,
      "byteLength": 384,
      "byteOffset": 45100
    },
    {
      "buffer": 0,
      "byteLength": 156,
      "byteOffset": 45484
    }
  ],
  "buffers": [
    {
      "byteLength": 45640,
      "uri": "scene.bin"
    }
  ]
}
