<svg width="586" height="587" viewBox="0 0 586 587" fill="none" xmlns="http://www.w3.org/2000/svg">
<path fill-rule="evenodd" clip-rule="evenodd" d="M267.864 0.972048C184.496 8.25305 109.383 49.9061 58.5752 117.03C47.0632 132.238 38.2532 146.499 29.9492 163.367C13.8012 196.171 4.1862 230.6 0.766196 267.867C-0.825804 285.212 0.167196 318.717 2.7822 335.871C8.3262 372.245 20.3942 407.188 38.1262 438.213C52.3562 463.109 68.0432 483.116 90.0742 504.464C111.443 525.171 135.434 542.217 161.709 555.361C189.926 569.476 219.085 578.767 249.402 583.303C254.923 584.129 266.922 585.327 276.067 585.965C288.605 586.84 296.836 586.844 309.529 585.982C338.822 583.994 359.331 580.043 385.364 571.375C410.859 562.885 432.638 552.268 455.864 537.006C477.366 522.877 503.77 498.764 520.549 477.934C537.653 456.701 554.369 428.681 564.189 404.783C572.85 383.707 579.379 360.097 582.969 336.867C585.605 319.816 586.652 282.184 584.95 265.664C582.388 240.784 577.572 218.697 569.84 196.368C546.937 130.225 497.989 71.804 436.864 37.658C412.967 24.308 388.108 14.533 362.364 8.36205C337.987 2.51905 314.587 -0.213952 290.864 0.0130479C283.439 0.0840479 273.089 0.515048 267.864 0.972048ZM313.469 13.893C339.826 15.992 366.108 21.576 389.118 29.968C411.527 38.14 436.633 51.473 456.364 65.678C484.786 86.142 513.121 116.458 531.313 145.867C544.389 167.008 555.627 192.429 562.257 215.867C566.874 232.19 569.387 245.066 571.431 262.867C572.715 274.058 572.972 282.501 572.556 299.867C571.997 323.194 570.673 334.684 566.218 354.867C563.038 369.272 555.544 392.105 549.45 405.956C540.285 426.786 526.693 449.137 511.587 468.218C502.053 480.26 480.773 501.685 468.864 511.231C455.576 521.881 434.989 535.159 420.033 542.725C389.362 558.24 360.435 567.098 326.198 571.46C309.072 573.642 276.656 573.642 259.53 571.46C224.923 567.051 194.664 557.668 164.182 541.894C138.705 528.71 116.115 512.149 95.3012 491.395C60.0322 456.23 34.6152 412.362 22.3742 365.526C14.9042 336.945 12.2632 313.62 13.1832 284.367C13.5272 273.421 14.6632 259.488 15.8642 251.498C19.9202 224.496 28.2182 197.486 40.0162 172.878C55.3362 140.927 73.4642 115.949 99.4692 90.9621C133.843 57.9331 175.84 34.259 221.11 22.392C251.549 14.413 283.294 11.492 313.469 13.893ZM301.762 28.125C296.782 31.434 293.864 37.898 293.864 45.619C293.864 57.178 298.974 62.884 310.722 64.443C317.782 65.379 324.132 63.465 327.792 59.296C331.293 55.309 333.4 46.929 332.467 40.706C330.944 30.547 324.644 25.927 312.262 25.889C306.535 25.871 304.502 26.304 301.762 28.125ZM253.364 28.074C248.721 29.696 244.309 33.409 242.505 37.212C240.436 41.572 240.394 49.807 242.417 54.649C246.867 65.302 256.721 68.384 271.23 63.661C275.006 62.432 278.329 60.82 278.613 60.079C278.897 59.338 278.658 57.75 278.08 56.55C276.065 52.359 275.985 49.896 277.82 48.61C279.163 47.669 279.385 46.804 278.735 45.048C278.155 43.479 277.308 42.889 276.121 43.225C275.154 43.499 272.047 44.016 269.215 44.375C264.802 44.934 264.001 45.372 263.604 47.447C263.257 49.263 263.579 49.867 264.896 49.867C266.835 49.867 267.864 51.787 267.864 55.403C267.864 57.323 267.196 57.902 264.371 58.432C256.996 59.815 253.349 56.845 251.721 48.128C250.681 42.562 252.029 37.565 255.163 35.37C258.334 33.149 265.424 33.427 267.864 35.867C270.166 38.169 272.864 38.506 272.864 36.492C272.864 35.736 273.133 33.77 273.463 32.124C274.001 29.434 273.733 29.017 270.813 27.999C266.836 26.613 257.428 26.653 253.364 28.074ZM345.545 34.617C344.165 37.993 344.166 38.487 345.56 39.566C346.786 40.516 347.421 40.453 348.61 39.264C349.653 38.221 351.066 37.967 353.238 38.432C354.957 38.8 356.533 39.254 356.739 39.442C356.945 39.63 355.621 45.268 353.795 51.97C351.295 61.149 350.03 64.272 348.67 64.6281C347.6 64.9081 346.864 66.0221 346.864 67.3621C346.864 69.3191 347.769 69.8511 353.58 71.3111C359.859 72.8881 360.375 72.8891 361.52 71.3231C362.435 70.0711 362.462 69.196 361.626 67.858C360.763 66.476 361.041 64.047 362.841 57.217C367.31 40.261 366.422 41.919 370.384 43.134C372.298 43.722 373.864 44.545 373.864 44.963C373.864 45.978 376.793 48.867 377.822 48.867C378.623 48.867 380.342 40.011 379.67 39.34C379.106 38.776 349.988 30.867 348.474 30.867C347.706 30.867 346.388 32.555 345.545 34.617ZM316.62 32.932C320.674 34.345 322.217 38.303 321.67 45.878C321.115 53.546 318.594 57.244 313.632 57.67C311.023 57.894 309.35 57.327 307.232 55.5C304.545 53.183 304.373 52.581 304.504 45.94C304.655 38.276 306.325 34.426 310.172 32.877C313.082 31.705 313.1 31.705 316.62 32.932ZM201.864 47.242C201.864 52.248 200.512 55.919 197.273 59.703L193.914 63.627L197.014 64.247C198.719 64.5881 201.024 64.8671 202.136 64.8671C203.248 64.8671 206.08 66.442 208.429 68.3671C210.779 70.2921 212.9 71.8671 213.143 71.8671C213.386 71.8671 213.857 69.57 214.19 66.762C214.641 62.956 215.686 60.57 218.299 57.381L221.803 53.105L218.709 52.486C217.007 52.146 214.704 51.867 213.592 51.867C212.48 51.867 209.648 50.292 207.299 48.367C204.949 46.442 202.766 44.867 202.446 44.867C202.126 44.867 201.864 45.936 201.864 47.242ZM395.533 47.681C394.301 49.041 394.177 49.78 395.034 50.637C395.892 51.495 394.702 54.662 390.271 63.312C386.4 70.868 383.801 74.847 382.731 74.855C381.832 74.8621 380.838 75.8601 380.52 77.0731C380.203 78.287 380.038 79.358 380.154 79.455C380.269 79.551 383.161 81.0321 386.58 82.746C392.564 85.745 392.835 85.79 393.827 83.937C394.393 82.8781 394.602 81.348 394.291 80.536C393.633 78.8231 397.426 70.8671 398.899 70.8671C399.447 70.8671 402.342 72.248 405.333 73.9361L410.771 77.0051L408.618 81.4361C407.256 84.2401 405.804 85.8671 404.665 85.8671C403.674 85.8671 402.864 86.2801 402.864 86.785C402.864 87.29 402.619 88.342 402.32 89.122C401.95 90.086 403.728 91.582 407.866 93.788C412.895 96.468 414.222 96.814 415.475 95.775C416.422 94.989 416.775 93.647 416.413 92.205C416.009 90.595 417.506 86.5611 421.357 78.8811C425.439 70.7421 427.37 67.8671 428.756 67.8671C429.934 67.8671 430.799 66.9871 431.083 65.5011C431.477 63.4421 430.724 62.734 425.301 60.06C419.391 57.145 418.984 57.077 417.479 58.74C416.28 60.065 416.174 60.777 417.044 61.647C417.915 62.518 417.752 63.7881 416.379 66.8341C415.379 69.0521 414.348 70.8671 414.089 70.8671C413.83 70.8671 410.973 69.413 407.741 67.636C404.509 65.859 401.866 63.947 401.868 63.386C401.875 61.432 405.845 55.867 407.233 55.867C408.002 55.867 408.87 54.954 409.161 53.838C409.598 52.169 408.648 51.282 403.806 48.838C400.569 47.204 397.753 45.867 397.548 45.867C397.342 45.867 396.435 46.683 395.533 47.681ZM158.356 61.664C151.445 64.054 146.342 68.216 144.413 73.036C143.126 76.2521 143.011 77.7831 143.863 80.3631C144.455 82.1571 145.787 84.393 146.824 85.331C149.797 88.021 155.63 88.257 162.215 85.953C166.534 84.442 168.564 84.1711 169.965 84.9211C172.752 86.413 172.332 90.3521 169.114 92.899C166.82 94.716 165.496 94.9891 161.128 94.5461C158.247 94.2531 155.628 94.4401 155.306 94.9601C154.985 95.48 155.255 97.522 155.907 99.496C157.059 102.989 157.199 103.069 161.06 102.452C166.55 101.574 174.097 97.567 177.194 93.887C178.619 92.193 180.069 89.2901 180.417 87.4351C181.304 82.7091 178.475 77.1261 174.148 75.063C170.987 73.555 170.308 73.566 164.555 75.2121C153.986 78.2361 153.161 78.2901 151.95 76.0271C151.055 74.3561 151.295 73.4771 153.274 71.177C155.36 68.752 156.42 68.3671 161.014 68.3671C165.068 68.3671 166.409 67.9911 166.641 66.788C167.014 64.847 165.201 59.855 164.139 59.9C163.713 59.918 161.111 60.712 158.356 61.664ZM274.864 76.993C239.453 79.8521 204.541 91.8381 174.661 111.395C126.898 142.658 93.7782 190.065 81.4142 244.867C77.2722 263.228 76.3602 272.29 76.4362 294.367C76.4942 311.311 76.9332 317.797 78.7132 327.948C82.8712 351.67 88.6582 369.45 98.9182 390.023C104.73 401.677 113.009 415.241 119.544 423.814C127.87 434.738 140.168 447.829 150.364 456.622C178.398 480.797 211.687 497.57 246.864 505.244C264.995 509.199 276.995 510.185 299.818 509.591C322.285 509.007 334.172 507.28 353.116 501.847C396.871 489.3 436.737 462.108 465.024 425.518C484.642 400.142 499.103 368.602 505.286 337.704C508.55 321.393 509.864 308.669 509.864 293.367C509.864 237.799 488.817 184.914 450.522 144.259C440.107 133.201 428.544 123.324 415.864 114.654C403.136 105.95 394.44 101.013 381.864 95.3521C359.245 85.1691 334.709 78.9731 308.914 76.9311C294.007 75.7521 290.154 75.759 274.864 76.993ZM445.519 81.314C440.815 83.0061 437.476 85.9771 433.723 91.813C431.581 95.1441 430.864 97.4761 430.864 101.112C430.864 103.782 431.516 107.227 432.313 108.768C434.294 112.599 440.364 117.758 445.63 120.088C453.161 123.419 460.077 120.907 466.854 112.379C468.512 110.294 470.375 106.894 470.995 104.824C472.744 98.9871 471.35 94.301 466.243 88.841C459.321 81.441 452.279 78.883 445.519 81.314ZM458.298 90.4161C459.598 91.2681 461.196 93.255 461.85 94.832C462.828 97.194 462.741 98.3251 461.356 101.244C459.064 106.072 451.528 112.867 448.463 112.867C447.118 112.867 444.633 111.702 442.941 110.278C438.69 106.702 438.79 102.561 443.268 96.6971C449.099 89.0601 453.452 87.2411 458.298 90.4161ZM109.902 97.47C103.952 103.083 103.056 104.356 103.919 105.97C104.477 107.013 105.732 107.867 106.707 107.867C108.034 107.867 109.796 111.038 113.708 120.465C116.584 127.394 118.699 133.813 118.408 134.729C118.098 135.706 118.647 136.875 119.737 137.556C121.33 138.55 122.209 138.091 125.891 134.339C129.533 130.628 129.992 129.726 128.903 128.414C128.197 127.563 127.015 126.867 126.277 126.867C125.538 126.867 124.492 126.04 123.951 125.029C123.144 123.521 123.838 122.333 127.804 118.426C131.576 114.71 133.106 113.809 134.753 114.332C135.924 114.703 136.864 115.847 136.864 116.899C136.864 117.943 137.662 119.224 138.637 119.745C140.036 120.494 141.507 119.748 145.628 116.198C150.123 112.325 150.7 111.429 149.792 109.732C149.195 108.617 147.931 107.894 146.879 108.065C145.856 108.231 139.585 105.682 132.942 102.4C125.103 98.528 120.864 95.8781 120.864 94.8501C120.864 93.1861 119.012 90.8671 117.683 90.8671C117.253 90.8671 113.752 93.838 109.902 97.47ZM319.208 94.368C340.811 97.1991 363.407 104.133 382.988 113.939C388.282 116.59 397.957 122.338 404.488 126.711C451.419 158.136 482.895 207.878 491.543 264.282C493.632 277.907 493.844 306.368 491.958 319.867C490.413 330.922 486.018 349.344 482.533 359.367C471.369 391.477 450.414 422.319 424.599 444.636C406.57 460.221 383.227 474.101 362.04 481.833C352.075 485.47 337.677 489.231 325.364 491.413C313.118 493.584 285.871 494.4 272.96 492.984C237.073 489.046 205.778 477.113 175.619 455.867C165.025 448.404 145.441 429.848 136.569 418.867C122.137 401.005 109.86 378.321 102.474 355.867C97.0422 339.356 94.2672 325.392 92.8222 307.291C90.3462 276.286 96.7052 239.912 109.503 211.867C118.867 191.348 127.838 177.448 142.84 160.216C158.132 142.65 181.557 124.569 202.864 113.884C221.695 104.44 244.892 97.2211 265.36 94.4351C279.066 92.5691 305.237 92.536 319.208 94.368ZM122.18 107.335L126.997 110.135L123.681 113.556L120.364 116.978L117.572 110.723C116.035 107.284 114.235 103.779 113.571 102.935C112.511 101.588 112.669 101.592 114.864 102.969C116.239 103.831 119.531 105.796 122.18 107.335ZM291.12 107.811C289.336 108.251 287.169 109.199 286.304 109.917C283.719 112.062 281.864 116.524 281.864 120.595C281.864 122.7 281.172 125.41 280.327 126.617C279.469 127.841 276.514 129.487 273.645 130.339C267.772 132.084 257.08 132.333 251.741 130.85C247.501 129.672 239.909 123.294 236.845 118.336C234.465 114.485 231.107 113.131 228.025 114.781C224.754 116.531 224.51 119.415 227.145 125.17C231.434 134.538 238.57 140.841 249.205 144.655C251.508 145.481 258.895 146.419 265.756 146.757L278.149 147.367L279.312 151.867C279.951 154.342 281.988 160.346 283.837 165.209C286.908 173.285 287.09 174.354 285.936 177.544C284.378 181.853 285.272 187.237 287.961 189.743L289.966 191.61L287.957 195.489C286.852 197.622 285.244 202.067 284.385 205.367C281.99 214.563 280.827 232.563 281.865 244.38C283.434 262.232 287.598 274.368 294.858 282.244C301.545 289.499 308.526 290.547 314.832 285.241C317.875 282.68 321.162 275.227 322.273 268.367C322.63 266.167 323.321 257.863 323.809 249.915C324.821 233.443 325.128 232.867 332.888 232.867C335.442 232.867 337.754 233.09 338.026 233.362C338.605 233.941 335.748 259.327 332.868 279.197C331.766 286.804 330.864 295.278 330.864 298.03C330.864 301.402 331.841 305.259 333.863 309.865C339.366 322.403 340.37 327.866 340.296 344.867C340.241 357.363 339.853 361.503 338.296 366.23C336.377 372.053 336.326 372.105 330.7 373.845C316.432 378.259 308.912 387.743 317.692 390.251C322.691 391.678 335.198 389.431 341.317 386.005C346.158 383.295 346.661 382.585 353.637 368.622C362.567 350.749 365.293 341.045 364.646 329.439C364.048 318.706 361.278 312.461 354.267 306.039C347.744 300.065 347.531 298.348 351.94 287.336C355.749 277.824 357.478 269.686 358.839 254.867C359.728 245.187 360.227 243.09 361.991 241.617C364.576 239.457 370.193 239.339 372.255 241.401C374.115 243.261 375.531 248.021 377.047 257.507C377.996 263.442 377.885 266.91 376.389 278.043L374.59 291.439L377.201 300.403C378.637 305.333 380.329 313.642 380.961 318.867C382.763 333.757 381.21 355.622 376.794 377.551L375.749 382.736L368.972 385.326C362.402 387.836 355.864 392.827 355.864 395.331C355.864 396.005 356.753 397.362 357.84 398.345C359.484 399.833 361.07 400.053 367.279 399.654C372.844 399.297 376.222 398.436 380.554 396.271C383.972 394.562 386.85 392.338 387.546 390.867C402.118 360.042 406.072 351.134 407.966 344.867C409.461 339.917 410.254 334.64 410.298 329.346C410.356 322.253 409.99 320.566 407.132 314.761C405 310.429 401.854 306.274 397.882 302.546C394.572 299.438 391.865 296.326 391.867 295.631C391.869 294.936 393.421 289.32 395.317 283.152C400.63 265.864 401.207 261.441 399.332 252.368C398.46 248.143 397.322 243.572 396.805 242.211C396.287 240.85 395.864 237.958 395.864 235.783C395.864 231.981 395.97 231.854 398.614 232.47C400.126 232.822 404.253 234.243 407.785 235.626C415.173 238.52 417.185 237.976 417.682 232.949C417.939 230.352 417.329 229.099 414.515 226.445C412.598 224.637 408.067 221.867 404.447 220.29C400.826 218.712 397.864 216.935 397.864 216.34C397.864 215.745 399.422 209.658 401.326 202.813C404.992 189.632 407.864 174.862 407.864 169.191C407.864 166.972 407.067 164.979 405.589 163.502C403.372 161.284 401.419 160.807 383.403 158.084C378.589 157.356 378.404 157.203 377.164 152.918C375.674 147.773 375.472 143.337 376.407 136.322C377.01 131.796 376.804 130.949 374.407 128.101C371.306 124.415 366.677 122.88 358.634 122.873C351.231 122.865 345.226 125.266 343.291 129.007C342.107 131.298 342.016 132.718 342.854 135.83C344.058 140.303 347.021 142.998 353.42 145.441C357.153 146.867 358.008 147.712 358.794 150.752C359.308 152.74 359.871 155.492 360.046 156.867C360.36 159.336 360.244 159.377 350.864 160.135C345.639 160.557 332.161 161.794 320.913 162.884C309.665 163.974 300.158 164.528 299.786 164.116C298.651 162.859 296.024 153.736 294.83 146.907C293.307 138.203 294.298 132.279 297.873 128.704C300.069 126.509 301.639 125.867 304.819 125.867C309.265 125.867 315.221 123.759 318.077 121.174C322.064 117.566 318.879 110.879 312.271 108.984C307.634 107.654 294.667 106.935 291.12 107.811ZM489.614 113.947C488.652 114.508 487.864 115.732 487.864 116.669C487.864 118.794 469.577 133.356 466.859 133.395C465.77 133.411 464.205 134.097 463.382 134.92C462.054 136.248 462.68 137.403 468.963 145.21C472.855 150.046 477.463 154.871 479.202 155.931C482.705 158.068 487.916 158.445 491.014 156.787C493.469 155.473 495.947 149.901 495.254 147.252C494.815 145.573 495.292 145.322 498.914 145.322C502.072 145.322 503.535 144.757 504.971 142.983C507.464 139.904 507.385 134.233 504.789 129.975C503.037 127.102 491.914 112.806 491.501 112.897C491.426 112.914 490.576 113.386 489.614 113.947ZM77.3042 134.045C72.3872 140.744 68.0092 146.81 67.5762 147.525C67.0622 148.374 67.9312 149.848 70.0742 151.763C72.5012 153.932 73.6942 154.423 74.6352 153.642C75.3362 153.061 75.6492 151.765 75.3312 150.764C74.7972 149.08 75.3342 147.554 77.7202 143.986C78.4472 142.9 80.7502 144.162 88.5042 149.893C93.9272 153.902 98.6602 157.632 99.0212 158.183C99.3832 158.735 99.4472 159.789 99.1642 160.526C98.8822 161.264 99.1112 161.867 99.6752 161.867C100.239 161.867 101.327 162.107 102.092 162.401C102.976 162.74 104.876 160.915 107.296 157.401C110.498 152.751 110.903 151.619 109.826 150.321C109.121 149.471 107.893 149.026 107.097 149.331C106.255 149.654 101.298 146.715 95.2422 142.302L84.8352 134.717L86.9172 131.792C88.1972 129.995 89.8962 128.867 91.3252 128.867C95.0972 128.867 95.1612 126.214 91.4452 123.917C89.6212 122.79 87.7042 121.867 87.1862 121.867C86.6672 121.867 82.2202 127.347 77.3042 134.045ZM498.864 133.444C498.864 135.116 498.044 136.284 496.316 137.071C494.03 138.113 493.438 137.9 490.566 135.002L487.364 131.771L490.864 128.836L494.364 125.901L496.614 128.44C497.852 129.836 498.864 132.088 498.864 133.444ZM485.614 139.186C486.852 141.003 487.864 143.164 487.864 143.988C487.864 146.7 485.271 149.117 482.362 149.117C480.352 149.117 478.724 148.145 476.816 145.808L474.115 142.499L478.084 139.183C480.267 137.359 482.348 135.87 482.709 135.874C483.069 135.878 484.376 137.368 485.614 139.186ZM520.291 155.632C519.701 156.036 518.933 157.141 518.584 158.086C518.236 159.032 513.444 162.067 507.936 164.831C496.977 170.331 494.846 172.736 494.886 179.567C494.911 183.918 497.965 191.27 501.176 194.712C504.038 197.779 508.139 199.867 511.302 199.867C512.698 199.867 518.588 197.506 524.39 194.62C532.192 190.74 535.141 189.698 535.711 190.62C536.318 191.601 536.891 191.568 538.403 190.462C540.275 189.093 540.249 188.904 537.395 182.932C535.419 178.798 534.017 176.978 533.084 177.336C532.323 177.628 531.287 177.867 530.782 177.867C530.277 177.867 529.864 178.672 529.864 179.657C529.864 180.927 527.013 182.85 520.04 186.28C509.174 191.627 506.868 191.71 504.353 186.846C502.392 183.053 502.472 180.523 504.614 178.632C505.576 177.782 510.107 175.217 514.683 172.931C520.074 170.238 523.698 168.997 524.981 169.404C526.069 169.75 527.591 169.508 528.363 168.868C529.544 167.888 529.266 166.692 526.6 161.286C524.859 157.755 522.969 154.874 522.399 154.882C521.83 154.891 520.881 155.228 520.291 155.632ZM54.1002 171.343C51.0402 177.548 50.9862 177.862 52.8132 178.84C53.8612 179.401 55.3772 179.608 56.1802 179.299C58.3362 178.472 79.9822 189.602 80.5672 191.838C80.8322 192.852 81.9292 193.912 83.0062 194.194C84.6002 194.611 85.5482 193.518 88.1222 188.299C91.2152 182.026 91.2402 181.862 89.3292 180.465C87.8852 179.409 87.1902 179.34 86.6582 180.201C86.1592 181.008 82.3942 179.6 74.3652 175.603C68.0002 172.434 62.5032 169.06 62.1512 168.104C61.4442 166.189 59.9222 164.906 58.3292 164.882C57.7592 164.874 55.8562 167.781 54.1002 171.343ZM383.423 177.29C385.034 178.47 385.325 179.767 385.135 184.916C384.836 193.026 383.077 202.554 381.216 206.153C379.47 209.53 374.491 211.867 369.045 211.867C363.089 211.867 358.999 210.029 357.196 206.542C355.408 203.085 354.205 188.193 355.259 182.575C355.794 179.721 356.619 178.768 359.641 177.515C364.621 175.448 380.703 175.296 383.423 177.29ZM332.812 178.839C335.12 180.075 335.582 181.327 337.934 192.727C340.154 203.495 340.436 212.151 338.614 213.651C336.137 215.691 323.622 215.482 321.506 213.366C320.681 212.541 319.287 209.393 318.408 206.371C316.616 200.206 312.35 194.725 307.913 192.887C305.199 191.763 305.064 191.482 306.289 189.514C307.025 188.333 307.91 186.142 308.257 184.646C308.604 183.149 309.895 181.374 311.126 180.701C315.591 178.259 329.497 177.065 332.812 178.839ZM193.947 180.994C183.906 182.331 169.749 187.011 161.888 191.593C158.327 193.669 152.477 198.292 148.888 201.867C137.219 213.492 131.864 227.557 131.864 246.58C131.864 252.368 132.566 260.161 133.448 264.17C135.536 273.652 142.541 288.011 148.42 294.857C158.293 306.354 171.084 314.42 185.864 318.47C194.77 320.91 213.921 320.916 222.864 318.482C241.969 313.281 256.672 300.825 265.504 282.358C267.348 278.504 269.983 270.909 271.36 265.48C273.26 257.991 273.864 253.033 273.864 244.92C273.864 232.43 272.485 226.874 266.527 215.367C263.517 209.553 260.196 205.18 254.375 199.365C245.547 190.546 236.462 185.08 226.364 182.511C218.401 180.485 203.137 179.771 193.947 180.994ZM210.317 191.849C215.167 193.693 215.708 200.557 211.142 202.317C210.164 202.694 204.796 203.262 199.214 203.58C189.264 204.146 189.012 204.106 186.464 201.557C182.308 197.402 183.232 194.566 189.464 192.345C194.009 190.725 206.574 190.426 210.317 191.849ZM42.6622 200.593C40.3252 203.256 38.1052 208.022 36.8162 213.145C35.9542 216.566 35.9482 218.592 36.7922 221.149C38.1472 225.255 41.3502 228.365 45.1522 229.264C49.8372 230.373 54.3372 227.417 58.8542 220.265C62.8872 213.879 65.1442 212.547 67.6642 215.067C68.3242 215.727 68.8642 217.787 68.8642 219.644C68.8642 222.043 68.0182 223.867 65.9412 225.944C64.3332 227.552 62.3082 228.867 61.4412 228.867C60.5262 228.867 59.8642 229.714 59.8642 230.883C59.8642 232.203 61.0742 233.476 63.3672 234.57C66.7132 236.166 66.9392 236.154 68.3902 234.304C71.0732 230.884 73.7362 225.262 74.9412 220.474C75.9352 216.529 75.8512 215.122 74.3992 211.319C72.4672 206.262 68.9812 203.867 63.5492 203.867C59.3432 203.867 55.6742 206.629 52.3542 212.293C50.9752 214.647 49.0152 217.325 48.0002 218.244C45.8712 220.171 43.2032 219.51 42.3582 216.848C41.4222 213.899 44.4092 208.154 47.7852 206.408C49.4792 205.532 50.8642 204.224 50.8642 203.502C50.8642 202.779 49.6272 201.568 48.1142 200.81C46.6012 200.051 45.1062 199.293 44.7912 199.125C44.4762 198.956 43.5182 199.617 42.6622 200.593ZM239.146 201.219C242.864 202.782 250.291 210.488 251.377 213.909C251.94 215.683 251.582 216.677 249.88 218.055C245.573 221.543 241.007 219.944 232.614 212.007C228.196 207.83 227.622 203.85 231.087 201.424C233.807 199.518 235.024 199.487 239.146 201.219ZM169.791 205.502C170.931 206.951 171.864 209.177 171.864 210.449C171.864 213.743 160.115 225.867 156.924 225.867C153.484 225.867 150.86 223.082 150.889 219.462C150.932 214.199 161.24 202.867 165.986 202.867C166.939 202.867 168.652 204.053 169.791 205.502ZM542.864 209.289C542.864 210.859 540.827 211.629 526.937 215.316C520.166 217.112 517.15 217.519 516.235 216.76C514.656 215.449 510.555 216.62 511.164 218.207C511.409 218.845 512.188 221.955 512.896 225.117C513.918 229.687 514.578 230.867 516.113 230.867C517.175 230.867 518.791 229.99 519.704 228.918C520.617 227.846 523.031 226.674 525.069 226.315C528.439 225.72 528.832 225.89 529.408 228.185C529.756 229.573 529.886 231.514 529.696 232.499C529.507 233.484 526.993 235.635 524.111 237.28C521.229 238.926 518.627 241.039 518.329 241.976C517.72 243.897 519.687 252.64 520.897 253.387C522.355 254.289 524.864 252.668 524.864 250.824C524.864 249.729 526.482 248.085 528.896 246.729C531.173 245.449 533.178 243.463 533.504 242.165C533.821 240.901 534.299 239.867 534.565 239.867C534.831 239.867 536.193 240.767 537.591 241.867C540.376 244.058 543.378 244.383 547.247 242.912C550.762 241.575 552.977 237.752 553.044 232.906C553.075 230.637 551.854 224.076 550.329 218.324C547.806 208.806 547.347 207.867 545.211 207.867C543.848 207.867 542.864 208.464 542.864 209.289ZM304.89 215.194C305.943 217.574 307.326 223.943 307.963 229.347C309.831 245.185 308.031 269.922 305.016 269.852C301.818 269.777 298.564 261.906 296.831 250.052C295.171 238.698 295.945 218.399 298.202 214.117C299.145 212.33 300.604 210.867 301.446 210.867C302.289 210.867 303.836 212.81 304.89 215.194ZM215.809 216.008C222.48 218.888 226.864 222.585 226.864 225.329C226.864 226.763 225.592 228.76 223.622 230.418C219.809 233.626 212.66 236.867 209.397 236.867C205.169 236.867 194.365 222.409 195.04 217.653C195.726 212.816 206.45 211.967 215.809 216.008ZM546.551 226.567C546.938 229.452 546.629 230.959 545.4 232.188C543.208 234.38 539.591 234.327 537.551 232.073C536.658 231.087 535.801 228.757 535.646 226.896C535.376 223.657 535.556 223.462 539.864 222.339C542.339 221.694 544.737 221.494 545.193 221.895C545.649 222.297 546.26 224.399 546.551 226.567ZM185.801 224.778C188.761 228.935 192.843 238 192.854 240.443C192.86 241.584 191.85 243.471 190.611 244.635C188.011 247.078 178.834 251.382 174.184 252.34C171.554 252.882 170.799 252.614 169.826 250.795C167.934 247.261 169.068 236.888 171.961 231.267C174.353 226.619 179.653 221.867 182.444 221.867C183.15 221.867 184.661 223.177 185.801 224.778ZM261.993 236.117C262.785 237.994 263.364 242.887 263.364 247.698C263.364 254.79 263.075 256.239 261.423 257.448C258.689 259.447 255.208 259.211 252.864 256.867C251.132 255.135 250.864 253.534 250.864 244.917C250.864 233.908 251.389 232.957 257.493 232.897C260.087 232.872 260.855 233.422 261.993 236.117ZM155.766 242.016C156.37 243.748 156.864 248.687 156.864 252.991C156.864 260.644 156.799 260.849 153.914 262.341C152.291 263.18 150.111 263.867 149.069 263.867C146.15 263.867 143.979 260.745 142.884 254.973C141.703 248.743 142.855 242.347 145.524 240.325C146.536 239.558 149.007 238.916 151.016 238.899C154.225 238.871 154.802 239.249 155.766 242.016ZM237.307 242.09C238.302 243.51 238.864 246.508 238.864 250.393C238.864 254.961 238.207 257.792 236.225 261.77C233.822 266.592 229.173 270.853 226.304 270.863C224.673 270.869 218.863 264.873 215.702 259.921C212.475 254.867 212.047 250.247 214.614 248.175C218.016 245.429 230.344 239.867 233.029 239.867C234.708 239.867 236.347 240.719 237.307 242.09ZM61.8642 247.364C61.8642 249.187 58.7562 250.867 55.3842 250.867C53.9482 250.867 51.6872 251.953 50.3592 253.281C48.0882 255.552 47.9092 255.583 47.3452 253.807C46.4462 250.975 41.9632 247.867 38.7762 247.867C34.6252 247.867 31.4262 249.646 29.3942 253.085C28.3342 254.881 27.0472 260.492 26.2622 266.75C25.5292 272.589 24.9142 278.102 24.8972 279C24.8572 280.965 28.9922 282.278 30.0142 280.625C31.0882 278.886 56.0622 281.47 57.1612 283.433C57.6022 284.222 59.0662 284.867 60.4142 284.867C62.5092 284.867 62.8662 284.396 62.8752 281.617C62.8812 279.829 63.1642 276.687 63.5032 274.635C63.9922 271.678 63.7682 270.767 62.4252 270.252C61.4922 269.894 59.6702 270.168 58.3762 270.86C56.9192 271.64 54.6612 271.864 52.4442 271.448C49.3502 270.867 48.8642 270.396 48.8642 267.977C48.8642 266.437 49.6542 264.462 50.6192 263.589C51.5842 262.716 54.7262 261.689 57.6002 261.308C60.4752 260.926 63.4762 260.109 64.2692 259.491C65.1152 258.831 65.8452 256.144 66.0372 252.985C66.3302 248.167 66.1282 247.515 64.1142 246.767C62.4392 246.145 61.8642 246.298 61.8642 247.364ZM203.544 261.125C205.293 263.743 207.29 268.412 207.982 271.502C209.147 276.708 209.097 277.227 207.301 278.581C204.509 280.686 195.387 279.674 189.301 276.583C183.551 273.663 178.864 269.586 178.864 267.504C178.864 264.031 192.941 255.585 197.864 256.104C199.584 256.285 201.356 257.851 203.544 261.125ZM41.6642 259.067C42.3242 259.727 42.8642 262.427 42.8642 265.067V269.867L38.6142 269.852C32.6192 269.83 31.4462 268.833 32.1692 264.378C32.4982 262.349 33.2942 260.054 33.9382 259.278C35.3692 257.554 40.0242 257.427 41.6642 259.067ZM536.295 262.759C524.419 265.784 519.395 277.367 523.67 291.867L525.587 298.367L531.434 298.042C535.805 297.798 537.562 298.101 538.397 299.244C539.831 301.205 544.225 300.251 543.421 298.154C543.114 297.356 542.864 294.04 542.864 290.785C542.864 285.139 542.749 284.867 540.364 284.867C538.843 284.867 537.864 285.437 537.864 286.322C537.864 287.196 536.449 288.042 534.317 288.442C532.367 288.808 530.547 288.884 530.275 288.611C529.102 287.438 528.79 281.14 529.777 278.569C531.253 274.724 536.789 272.53 543.592 273.094C549.815 273.61 553.419 276.381 554.125 281.19C554.717 285.223 553.196 289.619 550.759 290.923C548.178 292.305 548.371 294.714 551.114 295.354C557.155 296.764 558.089 296.484 559.422 292.867C560.131 290.942 560.746 286.54 560.788 283.085C560.899 273.911 557.785 267.429 551.773 264.32C548.419 262.586 540.22 261.759 536.295 262.759ZM252.242 275.8C253.607 277.166 253.941 278.425 253.453 280.37C252.614 283.712 240.906 295.867 238.526 295.867C235.976 295.867 231.864 291.35 231.864 288.55C231.864 285.893 236.137 279.905 241.135 275.559C243.674 273.351 245.005 272.875 247.361 273.333C249.009 273.653 251.205 274.764 252.242 275.8ZM169.994 279.586C175.751 284.971 178.138 288.931 177.205 291.554C176.112 294.628 173.657 296.867 171.38 296.867C170.185 296.867 167.051 295.439 164.416 293.694C159.558 290.476 153.864 283.719 153.864 281.172C153.864 280.404 154.969 278.672 156.319 277.322C157.865 275.775 159.916 274.867 161.861 274.867C164.163 274.867 166.234 276.068 169.994 279.586ZM216.108 294.844C219.095 297.194 220.09 301.178 218.3 303.616C217.213 305.096 215.398 305.36 206.575 305.321C198.426 305.285 195.557 304.896 193.5 303.548C192.05 302.598 190.864 301.01 190.864 300.018C190.864 297.483 194.807 294.107 198.364 293.597C200.014 293.36 204.116 293.099 207.479 293.017C212.214 292.901 214.162 293.313 216.108 294.844ZM52.8642 300.402C52.8642 301.306 53.7242 302.794 54.7742 303.707C56.0242 304.794 56.9072 307.308 57.3302 310.986C57.9362 316.263 57.8352 316.642 55.6702 317.222C54.4022 317.562 52.1472 317.846 50.6592 317.853C48.3552 317.865 47.8572 317.348 47.2962 314.356C46.8802 312.14 47.0892 310.301 47.8632 309.369C50.0912 306.684 48.2882 304.867 43.3952 304.867C39.6982 304.867 38.8642 305.198 38.8642 306.667C38.8642 307.657 39.2562 308.895 39.7362 309.417C40.2162 309.939 40.8962 312.28 41.2482 314.617L41.8882 318.867H36.8762H31.8642V313.474C31.8642 309.733 32.3002 307.914 33.2862 307.535C34.1252 307.213 34.4992 306.188 34.1982 305.035C33.7642 303.375 33.0612 303.161 29.5252 303.612C27.2372 303.903 25.2382 304.244 25.0832 304.369C24.9282 304.494 25.3542 310.712 26.0302 318.188C27.1562 330.659 27.4262 331.804 29.3112 332.081C30.4402 332.247 31.8782 331.72 32.5072 330.91C33.3042 329.884 37.3932 329.093 46.0072 328.297C56.5492 327.324 58.5372 327.368 59.5412 328.602C60.2702 329.499 61.5052 329.798 62.7912 329.39C65.2182 328.62 65.2772 327.083 63.5202 310.367L62.3642 299.367L57.6142 299.062C53.7492 298.814 52.8642 299.064 52.8642 300.402ZM135.284 310.752C133.59 311.785 131.626 314.026 130.92 315.732C129.248 319.768 130.313 325.368 133.126 327.338C135.688 329.132 141.118 329.337 144.082 327.751C146.098 326.671 146.146 326.796 145.51 331.501C145.149 334.177 142.943 341.767 140.609 348.367C136.553 359.833 136.364 360.878 136.375 371.867C136.383 381.046 136.853 384.881 138.702 390.867C143.094 405.082 151.687 418.105 163.873 429.015C172.791 437 182.926 443.798 194.864 449.802C207.425 456.12 215.274 459.168 229.536 463.269C254.945 470.575 286.016 473.741 314.114 471.887C333.09 470.636 348.535 468.542 358.364 465.89C373.699 461.753 393.086 451.975 408.971 440.367C420.8 431.722 433.832 418.255 441.472 406.778C452.649 389.989 462.189 364.482 463.505 347.867C464.219 338.856 462.836 332.987 458.983 328.674C456.667 326.082 455.291 325.485 450.782 325.117C446.013 324.728 445.09 324.969 443.074 327.128C440.565 329.815 439.269 335.358 440.242 339.235C440.584 340.598 442.297 343.146 444.049 344.898L447.234 348.083L446.028 355.116C443.158 371.854 430.926 392.521 417.09 404.011C410.561 409.433 403.128 412.881 396.493 413.566C390.998 414.133 390.8 414.063 386.399 410.006C383.365 407.209 381.01 405.872 379.136 405.882C374.19 405.91 373.604 406.927 374.377 414.142C375.023 420.178 374.912 420.771 372.933 421.83C371.753 422.461 369.916 422.701 368.849 422.362C367.776 422.022 365.268 418.623 363.235 414.754C359.46 407.57 356.262 404.867 351.536 404.867C346.479 404.867 346.026 408.574 350.008 417.367C352.38 422.604 352.333 426.398 349.864 428.867C345.329 433.402 340.9 430.061 337.844 419.799C336.755 416.143 335.864 411.942 335.864 410.464C335.864 408.944 334.798 406.71 333.409 405.322C328.884 400.796 320.864 402.918 320.864 408.641C320.864 409.805 322.446 413.908 324.379 417.76C326.312 421.612 328.16 426.095 328.485 427.723C328.95 430.046 328.638 430.918 327.036 431.775C323.903 433.452 321.414 433.087 319.147 430.617C316.683 427.933 311.864 412.589 311.864 407.427C311.864 399.734 302.737 395.903 297.319 401.322C295.969 402.672 294.864 404.436 294.864 405.243C294.864 406.05 296.889 410.582 299.364 415.313C302.131 420.603 303.864 425.227 303.864 427.32C303.864 433.326 298.366 436.141 295.47 431.617C293.423 428.42 288.844 412.804 287.818 405.523C287.2 401.134 286.333 398.865 284.797 397.617C280.437 394.075 273.864 396.276 273.864 401.278C273.864 402.526 274.772 407.099 275.883 411.44C276.993 415.781 278.173 421.647 278.506 424.477C279.028 428.917 278.808 429.923 276.901 431.83C275.254 433.477 274.012 433.877 272.027 433.399C270.563 433.046 268.825 432.054 268.167 431.194C266.579 429.118 263.995 417.51 263.865 411.867C263.808 409.392 264.063 404.654 264.432 401.338C265.162 394.765 264.542 393.577 259.749 392.374C257.797 391.884 256.422 392.344 254.255 394.213C251.456 396.626 251.371 396.97 251.585 405.036C251.707 409.618 252.079 416.166 252.412 419.586C252.974 425.372 252.833 425.989 250.374 428.448C248.237 430.585 247.135 430.971 244.613 430.467C242.898 430.124 240.684 429.109 239.693 428.212C238.071 426.744 237.94 425.171 238.384 412.474C238.655 404.715 239.157 395.992 239.5 393.089C240.003 388.831 239.779 387.431 238.339 385.839C236.365 383.658 232.81 383.29 229.714 384.947C228.603 385.542 227.077 387.506 226.323 389.312C225.269 391.833 225.197 393.49 226.013 396.444C226.838 399.434 226.691 402.307 225.352 409.33C224.404 414.3 223.03 419.828 222.298 421.615C220.6 425.76 216.833 427.629 213.364 426.049C211.265 425.093 210.864 424.225 210.865 420.638C210.867 414.741 213.294 403.037 215.33 399.108C217.388 395.139 216.626 390.514 213.562 388.368C210.648 386.327 208.248 386.483 205.864 388.867C204.43 390.301 203.861 392.212 203.852 395.617C203.837 401.644 201.489 410.55 199.048 413.834C196.509 417.251 192.528 417.654 190.461 414.702C189.583 413.448 188.864 410.939 188.864 409.126C188.864 407.313 190.438 400.961 192.362 395.01C195.216 386.182 196.322 383.979 198.369 383.046C199.75 382.418 201.623 380.344 202.531 378.438C203.763 375.855 203.952 374.178 203.274 371.852C202.773 370.135 201.145 367.993 199.654 367.091C195.91 364.827 191.715 366.339 190.515 370.385C189.04 375.356 188.269 376.354 185.662 376.669C182.19 377.089 179.633 372.945 179.633 366.9C179.633 358.358 184.068 353.026 193.438 350.303C199.195 348.629 201.216 346.947 200.309 344.584C199.454 342.357 195.793 341.743 189.967 342.848C183.242 344.123 179.954 345.918 175.68 350.649C170.404 356.489 168.505 362.364 169.066 371.109C169.426 376.716 170.292 379.899 172.869 385.076L176.206 391.782L174.383 395.824C173.381 398.048 172.02 399.867 171.36 399.867C169.159 399.867 163.487 395.395 160.165 391.039C158.359 388.671 156.146 384.203 155.246 381.11C153.007 373.407 153.875 360.041 157.308 349.367C163.441 330.295 160.99 315.603 150.795 310.331C146.796 308.263 139.02 308.474 135.284 310.752ZM522.393 315.117C522.168 315.805 521.265 321.317 520.385 327.367C519.506 333.417 518.561 339.525 518.285 340.939C517.825 343.299 518.166 343.599 522.401 344.568C526.17 345.431 527.12 345.365 527.563 344.209C527.862 343.43 527.346 341.952 526.417 340.925C524.956 339.311 524.872 338.276 525.796 333.279C526.383 330.1 526.864 327.349 526.864 327.164C526.864 326.98 527.989 327.062 529.364 327.348C537.58 329.054 536.999 328.61 536.292 332.646C535.934 334.693 535.016 336.867 534.253 337.477C531.867 339.384 532.666 341.577 535.989 342.242C537.708 342.586 539.91 342.867 540.882 342.867C543.013 342.867 544.411 339.823 542.751 338.797C541.995 338.33 541.787 336.728 542.174 334.343C542.507 332.295 542.992 330.405 543.254 330.144C543.515 329.882 545.604 329.985 547.894 330.372L552.06 331.076L551.406 335.721C551.023 338.446 549.948 341.054 548.808 342.027C545.606 344.762 546.397 346.541 551.095 347.171C553.422 347.483 555.425 347.639 555.547 347.517C555.669 347.395 556.693 341.265 557.823 333.894C559.45 323.278 559.616 320.327 558.62 319.695C556.893 318.599 555.458 318.673 554.208 319.923C552.564 321.567 529.922 317.925 527.648 315.651C525.577 313.58 522.981 313.316 522.393 315.117ZM32.3192 349.276C30.6522 350.495 30.6322 350.955 32.0232 355.976C33.3092 360.618 33.8882 361.411 36.1902 361.683C38.1112 361.911 38.8642 361.547 38.8642 360.392C38.8642 358.984 39.8322 358.882 46.6142 359.575C50.8772 360.011 56.3332 360.353 58.7392 360.337C62.1792 360.313 62.7472 360.527 61.3952 361.337C60.4502 361.903 56.2312 364.931 52.0202 368.064C46.9182 371.861 43.6972 373.609 42.3642 373.304C41.2642 373.053 39.7392 373.254 38.9752 373.752C37.8012 374.517 37.8622 375.682 39.3732 381.262C40.9322 387.023 41.4612 387.867 43.5122 387.867C44.8872 387.867 45.8642 387.272 45.8642 386.435C45.8642 385.647 51.5832 380.584 58.5722 375.185C65.5622 369.785 71.8502 364.917 72.5462 364.367C74.5012 362.822 72.1802 354.935 69.4722 353.919C68.3132 353.484 60.4622 352.548 52.0262 351.838C42.4122 351.03 36.2072 350.067 35.3982 349.258C34.3452 348.205 33.7802 348.208 32.3192 349.276ZM513.812 359.617C513.261 361.129 512.293 363.665 511.66 365.251C510.677 367.718 510.777 368.33 512.355 369.484C513.718 370.481 514.548 370.544 515.532 369.728C516.822 368.657 517.953 368.962 531.864 374.131C533.997 374.924 532.176 375.678 519.445 379.27L504.526 383.48L503.291 387.046L502.057 390.613L516.21 395.864C523.995 398.752 530.922 401.56 531.603 402.104C532.284 402.648 532.627 403.441 532.364 403.867C531.745 404.868 536.128 406.028 536.965 405.084C537.315 404.69 538.418 402.172 539.417 399.489C541.164 394.799 541.164 394.56 539.44 393.299C538.192 392.386 537.146 392.288 536.005 392.976C534.814 393.694 532.233 393.181 526.593 391.103L518.821 388.241L532.682 384.452L546.542 380.663L548.358 375.615C550.091 370.796 550.093 370.508 548.409 369.276C547.21 368.4 546.12 368.294 545.005 368.946C543.81 369.645 540.249 368.702 531.894 365.475C525.585 363.038 520.23 360.442 519.994 359.706C519.757 358.969 519.069 358.036 518.464 357.632C516.356 356.225 514.808 356.885 513.812 359.617ZM80.6142 389.556C79.6512 389.808 78.8642 390.777 78.8642 391.71C78.8642 394.062 56.2042 405.394 54.4362 403.926C53.5752 403.212 52.6252 403.322 51.3022 404.288C49.4612 405.635 49.4912 405.857 52.3182 411.771C54.3812 416.087 55.7892 417.867 57.1412 417.867C58.2322 417.867 59.2842 416.979 59.5932 415.797C59.9772 414.329 63.4862 412.146 71.6722 408.285C78.8272 404.91 83.9232 403.068 85.0852 403.437C86.1162 403.764 87.5912 403.508 88.3632 402.868C89.5442 401.888 89.2662 400.692 86.6002 395.286C84.8592 391.755 83.1942 388.919 82.8992 388.983C82.6052 389.047 81.5772 389.305 80.6142 389.556ZM493.105 408.393C490.839 410.332 487.776 414.392 486.296 417.416C484.177 421.748 483.727 423.809 484.174 427.14C484.579 430.162 485.618 432.151 487.818 434.117C490.178 436.226 491.912 436.867 495.254 436.867C499.122 436.867 500.304 436.249 505.776 431.367C509.166 428.342 512.582 425.867 513.367 425.867C514.151 425.867 515.288 426.79 515.891 427.918C516.754 429.53 516.591 430.652 515.127 433.168C514.04 435.036 511.933 436.804 510.064 437.418C508.303 437.996 506.316 439.015 505.648 439.683C504.695 440.636 505.072 441.536 507.399 443.858L510.364 446.818L513.652 444.24C518.468 440.465 522.843 432.293 522.855 427.051C522.86 424.678 522.401 421.87 521.834 420.812C520.483 418.287 515.701 415.867 512.064 415.867C509.062 415.867 503.193 419.608 498.94 424.231C496.321 427.078 493.967 427.57 492.064 425.667C488.7 422.303 493.394 414.421 499.435 413.288C501.333 412.932 503.155 412.205 503.484 411.672C504.053 410.752 499.187 404.867 497.857 404.867C497.509 404.867 495.37 406.454 493.105 408.393ZM85.3722 426.946C77.9882 432.505 72.7272 435.803 71.6792 435.529C70.7432 435.284 69.2722 435.864 68.4092 436.817C66.9692 438.409 67.1352 438.934 70.4512 443.277C72.8092 446.365 74.5762 447.808 75.5442 447.436C76.3602 447.123 77.2162 446.867 77.4462 446.867C77.6762 446.867 77.8642 446.008 77.8642 444.958C77.8642 443.8 80.4182 441.042 84.3642 437.941C87.9392 435.132 90.8532 433.178 90.8402 433.6C90.8282 434.022 89.0452 440.175 86.8802 447.273L82.9432 460.179L86.0962 464.273C87.8312 466.525 89.3492 468.516 89.4712 468.698C89.5932 468.88 90.6142 468.536 91.7412 467.933C92.8942 467.316 93.5542 466.222 93.2502 465.431C92.4792 463.422 113.725 447.507 115.363 448.866C116.195 449.556 117.101 449.263 118.329 447.905C120.035 446.021 119.98 445.797 116.788 441.659C114.968 439.298 113.374 437.213 113.246 437.026C113.119 436.838 112.081 436.981 110.939 437.343C109.798 437.705 108.864 438.817 108.864 439.813C108.864 440.895 105.914 443.845 101.538 447.138L94.2132 452.652L98.6122 437.795C102.944 423.168 102.983 422.9 101.188 420.434C100.185 419.057 98.9142 417.927 98.3642 417.924C97.8142 417.921 91.9682 421.981 85.3722 426.946ZM464.583 446.268C460.435 451.072 460.095 451.814 461.507 452.986C462.38 453.71 463.857 454.317 464.79 454.335C467.413 454.385 484.776 470.022 484.824 472.376C484.846 473.482 485.706 474.912 486.735 475.555C488.368 476.574 489.209 476.025 493.326 471.257C497.192 466.779 497.826 465.526 496.832 464.329C496.165 463.525 494.662 462.86 493.492 462.852C490.745 462.833 473.364 447.554 473.364 445.158C473.364 443.543 471.222 440.979 469.805 440.899C469.497 440.881 467.147 443.297 464.583 446.268ZM125.739 463.877C124.844 464.4 120.899 468.644 116.971 473.309C112.426 478.706 109.317 481.594 108.423 481.251C107.615 480.941 106.515 481.65 105.836 482.919C104.803 484.849 105.012 485.426 107.51 487.527C112.709 491.902 114.565 492.919 116.204 492.29C117.122 491.938 117.745 490.702 117.641 489.44C117.519 487.97 119.82 484.43 124.403 479.039C130.041 472.405 131.876 470.867 134.152 470.867C137.616 470.867 141.864 474.891 141.864 478.174C141.864 481.255 128.249 497.229 126.27 496.469C125.514 496.179 124.438 496.795 123.879 497.838C123.321 498.882 122.864 499.92 122.864 500.145C122.864 500.37 125.117 502.454 127.871 504.776C131.611 507.93 133.405 508.83 134.962 508.336C136.421 507.873 136.894 507.088 136.536 505.722C136.176 504.344 137.94 501.508 142.541 496.069C149.944 487.317 152.297 482.765 151.376 478.975C150.274 474.441 145.927 468.863 141.119 465.814C137.691 463.64 135.278 462.875 131.918 462.897C129.413 462.914 126.633 463.355 125.739 463.877ZM442.01 468.952C433.168 473.37 428.314 480.538 429.601 487.272C429.884 488.753 431.444 491.293 433.067 492.916C435.34 495.189 436.926 495.867 439.974 495.867C442.236 495.867 446.093 494.771 448.979 493.309C454.932 490.292 459.221 490.363 459.666 493.484C459.864 494.874 458.867 496.528 456.764 498.298C454.424 500.267 452.663 500.917 450.235 500.708C445.53 500.302 444.302 501.879 446.305 505.752C447.191 507.465 448.597 508.867 449.43 508.867C452.032 508.867 458.659 505.005 462.294 501.37C464.21 499.454 466.299 496.147 466.936 494.021C467.895 490.821 467.816 489.568 466.479 486.752C465.591 484.88 463.887 482.738 462.693 481.992C459.418 479.947 454.015 480.442 447.622 483.374C444.34 484.878 441.065 485.748 439.98 485.404C436.77 484.385 436.719 481.061 439.858 477.548C442.334 474.777 443.344 474.367 447.699 474.367C450.448 474.367 452.966 474.099 453.294 473.771C454.268 472.796 450.951 465.867 449.51 465.867C448.781 465.867 445.405 467.255 442.01 468.952ZM181.292 504.839C178.113 507.245 176.363 507.817 172.114 507.839C169.227 507.854 166.877 508.204 166.892 508.617C166.907 509.03 168.257 511.135 169.892 513.295C172.2 516.346 172.864 518.263 172.864 521.878C172.864 524.439 173.146 526.816 173.491 527.161C173.836 527.506 176.055 526.456 178.421 524.828C180.95 523.087 184.093 521.838 186.044 521.797C187.87 521.758 190.174 521.407 191.164 521.016C192.805 520.369 192.694 519.932 189.914 516.095C187.48 512.735 186.864 510.872 186.864 506.876C186.864 504.121 186.494 501.867 186.042 501.867C185.59 501.867 183.453 503.204 181.292 504.839ZM398.321 507.364C397.857 511.076 396.685 514.195 394.747 516.869C393.162 519.058 391.864 521.079 391.864 521.358C391.864 521.638 394.166 521.867 396.98 521.867C401.275 521.867 402.88 522.442 406.98 525.452L411.864 529.037V523.649C411.864 519.189 412.402 517.53 414.984 514.018C416.701 511.684 417.848 509.518 417.534 509.204C417.22 508.889 414.803 508.404 412.163 508.125C409.49 507.843 406.035 506.645 404.364 505.422C398.995 501.491 399.057 501.471 398.321 507.364ZM356.178 515.969C354.425 516.476 352.718 517.751 352.384 518.803C352.051 519.854 350.463 521.999 348.857 523.57C346.735 525.644 346.095 527.033 346.517 528.646C346.836 529.868 347.511 530.867 348.016 530.867C348.521 530.867 349.99 530.175 351.28 529.33L353.625 527.794L355.819 535.925C358.77 546.862 358.837 549.005 356.269 550.322C354.583 551.187 354.36 551.812 355.127 553.531L356.08 555.665L365.044 553.266C369.974 551.947 374.201 550.867 374.436 550.867C374.671 550.867 374.864 549.742 374.864 548.367C374.864 546.263 374.395 545.867 371.903 545.867C369.262 545.867 368.819 545.406 367.813 541.617C367.193 539.28 365.376 532.522 363.775 526.6C362.174 520.679 360.864 515.616 360.864 515.35C360.864 514.733 360.1 514.834 356.178 515.969ZM225.88 517.912C223.963 518.987 221.428 519.867 220.246 519.867C218.73 519.867 217.952 520.627 217.604 522.446C217.06 525.292 218.612 526.428 221.879 525.573C222.971 525.288 223.864 525.49 223.864 526.022C223.864 528.301 218.512 545.423 217.621 545.994C217.083 546.34 215.854 546.416 214.891 546.164C213.731 545.86 212.956 546.408 212.596 547.785C212.296 548.929 212.458 550.116 212.954 550.423C213.45 550.729 217.554 552.055 222.073 553.369C228.025 555.1 230.645 555.464 231.577 554.69C233.478 553.113 233.141 551.173 230.864 550.577C229.764 550.29 228.864 549.224 228.864 548.209C228.864 547.194 230.659 540.082 232.853 532.405C235.047 524.727 236.51 518.138 236.103 517.762C235.697 517.385 234.014 516.826 232.364 516.518C230.38 516.147 228.183 516.62 225.88 517.912ZM259.878 524.55C253.399 527.927 252.829 533.813 258.526 538.508L261.124 540.65L257.371 542.431C254.853 543.625 253.134 545.37 252.147 547.731C250.836 550.871 250.85 551.615 252.284 554.621C253.377 556.913 255.246 558.585 258.127 559.847C264.171 562.493 270.758 563.239 275.935 561.864C282.21 560.198 284.864 557.432 284.864 552.561C284.864 549.335 284.218 547.994 281.373 545.311L277.882 542.019L281.375 539.86C285.494 537.314 286.774 533.579 284.758 529.986C282.548 526.05 277.716 523.816 270.182 523.248C264.811 522.842 262.624 523.119 259.878 524.55ZM310.901 524.041C302.985 526.312 299.168 531.643 300.161 539.042C300.533 541.817 301.706 544.17 303.721 546.186C306.133 548.597 307.795 549.28 312.132 549.639C315.912 549.953 318.488 549.596 320.7 548.452C323.589 546.958 323.864 546.955 323.864 548.418C323.864 549.3 322.587 551.298 321.027 552.858C319.102 554.783 316.693 555.92 313.539 556.393C310.981 556.777 308.178 556.818 307.31 556.485C306.073 556.01 305.801 556.465 306.048 558.591C306.488 562.367 311.032 563.595 318.436 561.938C326.199 560.201 331.198 555.301 332.866 547.791C333.814 543.523 333.838 540.974 332.97 536.925C332.346 534.016 330.948 530.389 329.863 528.865C327.664 525.778 321.27 522.819 317.094 522.957C315.592 523.007 312.805 523.495 310.901 524.041ZM275.257 531.117C276.701 533.421 275.084 536.037 271.406 537.347C269.012 538.199 268.345 537.965 266.257 535.537C264.318 533.283 264.062 532.365 264.925 530.753C265.774 529.167 266.83 528.821 270.076 529.063C272.63 529.253 274.571 530.023 275.257 531.117ZM319.825 529.846C322.363 531.204 324.013 536.346 322.873 539.344C321.758 542.277 318.985 543.867 314.986 543.867C311.328 543.867 308.864 540.788 308.864 536.217C308.864 533.946 309.632 532.408 311.499 530.94C314.378 528.675 316.994 528.331 319.825 529.846ZM272.766 547.263C275.827 550.521 275.323 554.995 271.754 556.242C270.319 556.744 267.988 556.864 266.574 556.509C263.805 555.814 260.864 553.347 260.864 551.719C260.864 549.966 266.631 544.867 268.613 544.867C269.659 544.867 271.528 545.945 272.766 547.263Z" fill="#004B8A"/>
</svg>
